<svg width="29" height="29" viewBox="0 0 29 29" fill="none" xmlns="http://www.w3.org/2000/svg">
<path d="M2 9.16667V8.11111C2 7.53056 2.2352 7.03374 2.7056 6.62067C3.176 6.20759 3.7408 6.0007 4.4 6H23.6C24.26 6 24.8252 6.20689 25.2956 6.62067C25.766 7.03444 26.0008 7.53126 26 8.11111V9.16667C26 9.46574 25.8848 9.71661 25.6544 9.91928C25.424 10.1219 25.1392 10.2229 24.8 10.2222C24.4608 10.2215 24.176 10.1202 23.9456 9.91822C23.7152 9.71626 23.6 9.46574 23.6 9.16667V8.11111H4.4V9.16667C4.4 9.46574 4.2848 9.71661 4.0544 9.91928C3.824 10.1219 3.5392 10.2229 3.2 10.2222C2.8608 10.2215 2.576 10.1202 2.3456 9.91822C2.1152 9.71626 2 9.46574 2 9.16667ZM10.4 25C10.06 25 9.7752 24.8987 9.5456 24.696C9.316 24.4933 9.2008 24.2428 9.2 23.9444V22.8889H4.4C3.74 22.8889 3.1752 22.6823 2.7056 22.2693C2.236 21.8562 2.0008 21.359 2 20.7778V19.7486C2 19.4495 2.1152 19.2032 2.3456 19.0097C2.576 18.8162 2.8608 18.7194 3.2 18.7194C3.5392 18.7194 3.8244 18.8204 4.0556 19.0224C4.28362 19.2216 4.39842 19.4683 4.4 19.7627C4.40002 19.7668 4.40002 19.7709 4.4 19.775V20.7778H23.6V19.775V19.7486C23.6 19.4495 23.7152 19.2032 23.9456 19.0097C24.176 18.8162 24.4608 18.7194 24.8 18.7194C25.1392 18.7194 25.4244 18.8204 25.6556 19.0224C25.8836 19.2216 25.9984 19.4683 26 19.7627C26 19.7668 26 19.7709 26 19.775V20.7778C26 21.3583 25.7652 21.8555 25.2956 22.2693C24.826 22.6831 24.2608 22.8896 23.6 22.8889H18.8V23.9444C18.8 24.2435 18.6848 24.4944 18.4544 24.6971C18.224 24.8997 17.9392 25.0007 17.6 25H10.4Z" fill="white"/>
<path d="M4.4 9.16667C4.4 9.46574 4.2848 9.71661 4.0544 9.91928C3.824 10.1219 3.5392 10.2229 3.2 10.2222C2.8608 10.2215 2.576 10.1202 2.3456 9.91822C2.1152 9.71626 2 9.46574 2 9.16667V19.7486C2 19.4495 2.1152 19.2032 2.3456 19.0097C2.576 18.8162 2.8608 18.7194 3.2 18.7194C3.5392 18.7194 3.8244 18.8204 4.0556 19.0224C4.28362 19.2216 4.39842 19.4683 4.4 19.7627V9.16667Z" fill="white"/>
<path d="M26 9.16667C26 9.46574 25.8848 9.71661 25.6544 9.91928C25.424 10.1219 25.1392 10.2229 24.8 10.2222C24.4608 10.2215 24.176 10.1202 23.9456 9.91822C23.7152 9.71626 23.6 9.46574 23.6 9.16667V19.7486C23.6 19.4495 23.7152 19.2032 23.9456 19.0097C24.176 18.8162 24.4608 18.7194 24.8 18.7194C25.1392 18.7194 25.4244 18.8204 25.6556 19.0224C25.8836 19.2216 25.9984 19.4683 26 19.7627V9.16667Z" fill="white"/>
<path d="M18 12L20 14.5L18 17M10 12L8 14.5L10 17M15 11L13 18" stroke="white" stroke-width="1.5" stroke-linecap="round" stroke-linejoin="round"/>
</svg>
